<svg xmlns:xlink="http://www.w3.org/1999/xlink" ed:hSpacing="30" id="page300000109" xmlns="http://www.w3.org/2000/svg" width="680" ed:vSpacing="30" height="169" xmlns:ed="https://www.edrawsoft.cn/xml/2017/SVGExtensions/" viewBox="0 0 680 169" ed:name="画布 10" xmlns:ev="http://www.w3.org/2001/xml-events"><style type="text/css"><![CDATA[
g[ed\:togtopicid],g[ed\:hyperlink],g[ed\:comment],g[ed\:note] {cursor:pointer;}
g[id] {-moz-user-select: none;-ms-user-select: none;user-select: none;}
svg text::selection,svg tspan::selection{background-color: #4285f4;color: #ffffff;fill: #ffffff;}
.st33 {fill:#333333;font-family:微软雅黑;font-size:18pt}
.st32 {fill:#333333;font-family:微软雅黑;font-size:30pt;font-weight:bold}
]]></style><defs/><rect y="0" fill="#0a0800" width="680" height="169" x="0"/><path stroke-width="3" stroke-linecap="round" fill="none" id="112" ed:parentid="110" transform="matrix(1,0,0,1,258,102.5)" d="M-19,1.9C-33.3,11.5,-55.2,20,-82,20" stroke-linejoin="round" ed:tosuperid="111" stroke="#fefcf0"/><path stroke-width="3" stroke-linecap="round" fill="none" id="114" ed:parentid="110" transform="matrix(1,0,0,1,258,62.5)" d="M-19,-1.9C-33.3,-11.5,-55.2,-20,-82,-20" stroke-linejoin="round" ed:tosuperid="113" stroke="#fefcf0"/><path stroke-width="3" stroke-linecap="round" fill="none" id="116" ed:parentid="110" transform="matrix(1,0,0,1,422,62.5)" d="M19,-1.9C33.3,-11.5,55.2,-20,82,-20" stroke-linejoin="round" ed:tosuperid="115" stroke="#fefcf0"/><path stroke-width="3" stroke-linecap="round" fill="none" id="118" ed:parentid="110" transform="matrix(1,0,0,1,422,102.5)" d="M19,1.9C33.3,11.5,55.2,20,82,20" stroke-linejoin="round" ed:tosuperid="117" stroke="#fefcf0"/><g ed:width="202" id="110" transform="matrix(1,0,0,1,239,41.5)" ed:height="82" ed:layout="map" ed:topictype="mainidea"><path fill="#fad831" d="M4,0L198,0C200.7,0,202,1.3,202,4L202,78C202,80.7,200.7,82,198,82L4,82C1.3,82,0,80.7,0,78L0,4C0,1.3,1.3,0,4,0z"/><text class="st32"><tspan y="56.45" style="white-space:pre" textLength="160" x="21">中心主题</tspan></text></g><g ed:width="155" id="111" ed:parentid="110" transform="matrix(1,0,0,1,21,99)" ed:height="47" ed:layout="leftmap"><path fill="#eec900" d="M4,0L151,0C153.7,0,155,1.3,155,4L155,43C155,45.7,153.7,47,151,47L4,47C1.3,47,0,45.7,0,43L0,4C0,1.3,1.3,0,4,0z"/><text class="st33"><tspan y="32.45" style="white-space:pre" textLength="117" x="19">分支主题 1</tspan></text></g><g ed:width="155" id="113" ed:parentid="110" transform="matrix(1,0,0,1,21,19)" ed:height="47" ed:layout="leftmap"><path fill="#eec900" d="M4,0L151,0C153.7,0,155,1.3,155,4L155,43C155,45.7,153.7,47,151,47L4,47C1.3,47,0,45.7,0,43L0,4C0,1.3,1.3,0,4,0z"/><text class="st33"><tspan y="32.45" style="white-space:pre" textLength="117" x="19">分支主题 2</tspan></text></g><g ed:width="155" id="115" ed:parentid="110" transform="matrix(1,0,0,1,504,19)" ed:height="47" ed:layout="rightmap"><path fill="#eec900" d="M4,0L151,0C153.7,0,155,1.3,155,4L155,43C155,45.7,153.7,47,151,47L4,47C1.3,47,0,45.7,0,43L0,4C0,1.3,1.3,0,4,0z"/><text class="st33"><tspan y="32.45" style="white-space:pre" textLength="117" x="19">分支主题 3</tspan></text></g><g ed:width="155" id="117" ed:parentid="110" transform="matrix(1,0,0,1,504,99)" ed:height="47" ed:layout="rightmap"><path fill="#eec900" d="M4,0L151,0C153.7,0,155,1.3,155,4L155,43C155,45.7,153.7,47,151,47L4,47C1.3,47,0,45.7,0,43L0,4C0,1.3,1.3,0,4,0z"/><text class="st33"><tspan y="32.45" style="white-space:pre" textLength="117" x="19">分支主题 4</tspan></text></g></svg>